<svg xmlns="http://www.w3.org/2000/svg" xmlns:xlink="http://www.w3.org/1999/xlink" version="1.1" x="0px" y="0px" viewBox="0 0 100 125" enable-background="new 0 0 100 100" xml:space="preserve"><g><path d="M76.435,60.982c1.973-3.457,1.655-7.784-2.246-9.163c-3.648-2.758-9.387-1.76-12.497,1.459   c-3.894,4.027-1.626,9.582,3.106,11.834C69.185,67.2,74.084,65.102,76.435,60.982z M71.568,53.467c0.121,0.382,0.421,0.7,0.95,0.81   c5.979,1.239-1.12,11.686-6.677,8.196c-2.973-1.867-4.923-5.103-1.614-7.691C66.143,53.283,69.254,52.391,71.568,53.467z"/><path d="M55.008,84.093c0.189,0.951,1.052,1.173,1.76,0.908c0.171,0.079,0.37,0.125,0.598,0.127   c9.158,0.073,18.33,1.389,27.418-0.302c1.081-0.201,1.226-1.272,0.781-2.016c0-0.033,0.006-0.062,0.005-0.095   c-0.22-4.368-2.257-8.823-5.938-11.374c-2.002-1.387-3.966-1.896-5.957-2.034c-0.206-0.152-0.465-0.255-0.781-0.27   c-1.497-0.07-3.129,0.086-4.779,0.447c-1.291,0.084-2.613,0.141-3.986,0.054c-1.121-0.07-1.544,0.976-1.279,1.814   C57.797,73.891,53.863,78.363,55.008,84.093z M72.893,71.855c0.182,0.009,0.34-0.019,0.485-0.063   c1.083,0.092,2.118,0.342,3.06,0.871c3.625,2.04,5.935,5.531,6.271,9.664c-8.306,1.269-16.75,0.074-25.107-0.014   C57.251,75.512,67.273,71.593,72.893,71.855z"/><path d="M15.174,51.271c4.637,1.528,9.426,0.881,14.213,0.966c5.299,0.095,10.416,1.683,15.711,1.839   c0.914,0.027,1.603-0.92,1.357-1.783C46.4,52.1,46.37,51.884,46.328,51.68c0.123-0.204,0.195-0.456,0.178-0.765   c-0.426-7.396-4.771-14.756-12.851-15.353c-9.365-0.691-14.636,5.533-19.073,12.889c-0.15,0.252-0.207,0.498-0.204,0.729   C14.012,49.896,14.18,50.944,15.174,51.271z M17.551,48.994c3.215-5.243,7.195-10.719,14.023-10.693   c6.82,0.025,10.953,4.626,11.918,10.854c-0.222,0.295-0.338,0.681-0.256,1.133c0.061,0.328,0.102,0.604,0.138,0.862   c-4.3-0.392-8.505-1.632-12.827-1.71C26.233,49.364,21.783,49.938,17.551,48.994z"/><path d="M35.589,16.745c-0.017-0.032-0.024-0.063-0.044-0.096c-2.672-4.579-8.611-1.564-10.938,1.739   c-3.351,4.762-1.181,10.89,4.186,13.045C37.471,34.92,42.502,19.856,35.589,16.745z M30.306,28.997   c-3.776-1.236-5.913-5.425-3.505-8.846c0.873-1.242,3.449-3.554,5.219-3.006c-0.194,0.793,0.24,1.805,1.307,1.874   C38.721,19.368,35.506,30.697,30.306,28.997z"/><path d="M52.234,17.003c6.629-0.949,12.619,2.158,17.64,6.246c4.364,3.554,6.08,9.092,6.39,14.585   c0.617-0.579,1.25-1.141,1.928-1.657c0.611-0.467,1.574-0.096,1.927,0.506c0.424,0.724,0.104,1.462-0.506,1.927   c-0.981,0.749-1.849,1.662-2.719,2.534c-0.057,0.057-0.116,0.1-0.176,0.144c-0.247,0.612-0.896,1.1-1.644,0.954   c-0.659,0.092-1.365-0.222-1.541-0.938c-0.53-0.481-0.98-1.047-1.383-1.662c-0.657-1.007-1.155-2.142-2.224-2.785   c-1.552-0.937-0.138-3.373,1.423-2.433c0.805,0.485,1.43,1.121,1.975,1.847c-0.388-3.558-1.471-7.158-3.883-9.612   c-4.088-4.161-10.46-7.797-16.458-6.938C51.207,19.975,50.441,17.26,52.234,17.003z"/><path d="M16.34,60.967c1.847-1.069,3.605-2.283,5.51-3.255c0.174-0.089,0.344-0.133,0.51-0.152   c0.022-0.005,0.045-0.008,0.068-0.012c0.006,0,0.012-0.001,0.017-0.002c0.493-0.075,1.013,0.102,1.332,0.671   c0.585,1.042,0.749,2.149,0.874,3.321c0.11,1.033,0.131,2.121,1.124,2.684c1.579,0.896,0.161,3.331-1.423,2.433   c-0.706-0.401-1.225-0.938-1.61-1.57c-0.722,5.588,0.142,11.783,4.864,14.79c5.904,3.76,14.363,2.475,20.997,2.437   c1.817-0.012,1.816,2.806,0,2.817c-7.67,0.044-17.831,1.433-24.151-4.038c-5.16-4.465-5.467-12.749-3.983-19.338   c-0.899,0.553-1.792,1.118-2.706,1.647C16.187,64.312,14.769,61.877,16.34,60.967z"/></g><text x="0" y="115" fill="#000000" font-size="5px" font-weight="bold" font-family="'Helvetica Neue', Helvetica, Arial-Unicode, Arial, Sans-serif">Created by Akshar Pathak</text><text x="0" y="120" fill="#000000" font-size="5px" font-weight="bold" font-family="'Helvetica Neue', Helvetica, Arial-Unicode, Arial, Sans-serif">from the Noun Project</text></svg>