<svg xmlns="http://www.w3.org/2000/svg" xmlns:xlink="http://www.w3.org/1999/xlink" version="1.1" x="0px" y="0px" viewBox="0 0 100 125" enable-background="new 0 0 100 100" xml:space="preserve"><g><path d="M50,5C25.188,5,5,25.187,5,50c0,24.813,20.188,45,45,45s45-20.188,45-45C95,25.187,74.813,5,50,5z M50,91.816   C26.942,91.816,8.184,73.058,8.184,50S26.942,8.184,50,8.184S91.816,26.942,91.816,50S73.058,91.816,50,91.816z"/><path d="M68.006,42.203L50.341,59.868c-0.188,0.188-0.493,0.188-0.682,0L31.995,42.203c-0.622-0.621-1.631-0.621-2.252,0   c-0.622,0.622-0.622,1.63,0,2.251l18.449,18.449c0.997,0.997,2.618,0.997,3.615,0l18.449-18.449c0.622-0.622,0.622-1.63,0-2.251   C69.636,41.582,68.627,41.582,68.006,42.203z"/></g><text x="0" y="115" fill="#000000" font-size="5px" font-weight="bold" font-family="'Helvetica Neue', Helvetica, Arial-Unicode, Arial, Sans-serif">Created by David</text><text x="0" y="120" fill="#000000" font-size="5px" font-weight="bold" font-family="'Helvetica Neue', Helvetica, Arial-Unicode, Arial, Sans-serif">from the Noun Project</text></svg>