<svg xmlns="http://www.w3.org/2000/svg" xmlns:xlink="http://www.w3.org/1999/xlink" version="1.1" x="0px" y="0px" viewBox="0 0 100 125" enable-background="new 0 0 100 100" xml:space="preserve"><path d="M86.8,26.2H40.7c-5.4,0-9.7,4.4-9.7,9.7v28.1c0,5.4,4.4,9.7,9.7,9.7h46.1c5.4,0,9.7-4.4,9.7-9.7V35.9  C96.5,30.6,92.2,26.2,86.8,26.2z M92.3,64.1c0,3-2.5,5.5-5.5,5.5H60.7h-20c-3,0-5.5-2.5-5.5-5.5V35.9c0-3,2.5-5.5,5.5-5.5h46.1  c3,0,5.5,2.5,5.5,5.5V64.1z M86.9,61.4c0.9,0.8,0.9,2.1,0.2,3c-0.4,0.5-1,0.7-1.6,0.7c-0.5,0-1-0.2-1.4-0.5L69.7,51.7L65,55.3  c-0.4,0.3-0.8,0.4-1.3,0.4s-0.9-0.1-1.3-0.4l-4.5-3.5L43.4,64.6C43,65,42.5,65.1,42,65.1c-0.6,0-1.2-0.2-1.6-0.7  c-0.8-0.9-0.7-2.2,0.2-3l13.9-12.2L40.7,38.5c-0.9-0.7-1.1-2.1-0.4-3c0.7-0.9,2.1-1.1,3-0.4l15.8,12.3c0,0,0,0,0,0l4.6,3.6  l20.4-15.8c0.9-0.7,2.3-0.6,3,0.4c0.7,0.9,0.6,2.3-0.4,3L73.1,49.1L86.9,61.4z M28.2,50c0,1.2-1,2.1-2.1,2.1H12.5  c-1.2,0-2.1-1-2.1-2.1c0-1.2,1-2.1,2.1-2.1H26C27.2,47.9,28.2,48.8,28.2,50z M3.5,41c0-1.2,1-2.1,2.1-2.1H26c1.2,0,2.1,1,2.1,2.1  c0,1.2-1,2.1-2.1,2.1H5.6C4.4,43.1,3.5,42.1,3.5,41z M28.2,59c0,1.2-1,2.1-2.1,2.1h-8.9c-1.2,0-2.1-1-2.1-2.1c0-1.2,1-2.1,2.1-2.1  H26C27.2,56.9,28.2,57.9,28.2,59z"/><text x="0" y="115" fill="#000000" font-size="5px" font-weight="bold" font-family="'Helvetica Neue', Helvetica, Arial-Unicode, Arial, Sans-serif">Created by Gregor Cresnar</text><text x="0" y="120" fill="#000000" font-size="5px" font-weight="bold" font-family="'Helvetica Neue', Helvetica, Arial-Unicode, Arial, Sans-serif">from the Noun Project</text></svg>