<svg xmlns="http://www.w3.org/2000/svg" xmlns:xlink="http://www.w3.org/1999/xlink" version="1.1" x="0px" y="0px" viewBox="0 0 100 125" enable-background="new 0 0 100 100" xml:space="preserve"><path d="M49.957,21.729c-15.614,0-28.271,12.657-28.271,28.271s12.657,28.271,28.271,28.271S78.228,65.614,78.228,50  S65.571,21.729,49.957,21.729z M49.957,74.53c-13.547,0-24.53-10.982-24.53-24.53s10.982-24.53,24.53-24.53S74.487,36.453,74.487,50  S63.504,74.53,49.957,74.53z M50.043,21.729c-15.614,0-28.271,12.657-28.271,28.271s12.657,28.271,28.271,28.271  S78.314,65.614,78.314,50S65.657,21.729,50.043,21.729z M50.043,74.53c-13.547,0-24.53-10.982-24.53-24.53s10.982-24.53,24.53-24.53  S74.573,36.453,74.573,50S63.591,74.53,50.043,74.53z M49.229,57.798l-0.001-0.001l-2.033,2.033l-9.616-9.616l2.646-2.646  l6.972,6.972l12.665-12.665l2.646,2.646L49.229,57.798z"/><text x="0" y="115" fill="#000000" font-size="5px" font-weight="bold" font-family="'Helvetica Neue', Helvetica, Arial-Unicode, Arial, Sans-serif">Created by Gregor Cresnar</text><text x="0" y="120" fill="#000000" font-size="5px" font-weight="bold" font-family="'Helvetica Neue', Helvetica, Arial-Unicode, Arial, Sans-serif">from the Noun Project</text></svg>