<svg xmlns="http://www.w3.org/2000/svg" xmlns:xlink="http://www.w3.org/1999/xlink" version="1.1" x="0px" y="0px" viewBox="0 0 100 125" enable-background="new 0 0 100 100" xml:space="preserve"><g><path d="M46.52,77.348c-18.603,0-33.738-15.137-33.738-33.739c0-18.606,15.136-33.742,33.738-33.742   c18.606,0,33.745,15.135,33.745,33.742C80.265,62.211,65.126,77.348,46.52,77.348z M46.52,12.902   c-16.932,0-30.704,13.775-30.704,30.707c0,16.932,13.772,30.704,30.704,30.704c16.935,0,30.71-13.771,30.71-30.704   C77.229,26.677,63.454,12.902,46.52,12.902z"/></g><g><path d="M46.525,97.426c-10.349,0-20.825-2.814-20.825-8.199c0-2.998,3.271-5.436,9.234-6.906c1.171-2.697,1.18-5.154,0.039-7.492   c-0.271-0.551-0.182-1.207,0.222-1.666c0.4-0.463,1.04-0.635,1.621-0.441c6.34,2.113,13.076,2.107,19.409,0   c0.575-0.193,1.219-0.021,1.621,0.441c0.403,0.459,0.492,1.115,0.223,1.666c-1.145,2.342-1.132,4.799,0.038,7.488   c5.966,1.471,9.238,3.912,9.238,6.91C67.346,94.611,56.872,97.426,46.525,97.426z M38.675,76.408   c0.469,2.525,0.032,5.166-1.313,7.893c-0.202,0.408-0.581,0.705-1.025,0.805c-5.578,1.26-7.603,3.154-7.603,4.121   c0,2.105,6.933,5.164,17.791,5.164c10.856,0,17.785-3.059,17.785-5.164c0-0.971-2.024-2.863-7.602-4.123   c-0.444-0.098-0.821-0.395-1.025-0.807c-1.349-2.721-1.787-5.363-1.316-7.889C49.202,77.658,43.847,77.658,38.675,76.408z"/></g><g><path d="M46.522,59.746c-8.052,0-14.604-6.553-14.604-14.605c0-8.053,6.553-14.605,14.604-14.605   c8.053,0,14.605,6.553,14.605,14.605C61.128,53.193,54.575,59.746,46.522,59.746z M46.522,33.571c-6.381,0-11.57,5.189-11.57,11.57   c0,6.38,5.189,11.57,11.57,11.57s11.57-5.189,11.57-11.57C58.093,38.76,52.903,33.571,46.522,33.571z"/></g><g><path d="M46.522,53.17c-4.428,0-8.031-3.602-8.031-8.029c0-4.428,3.604-8.032,8.031-8.032s8.032,3.604,8.032,8.032   C54.555,49.568,50.95,53.17,46.522,53.17z M46.522,40.144c-2.756,0-4.996,2.241-4.996,4.997c0,2.753,2.24,4.994,4.996,4.994   c2.757,0,4.997-2.241,4.997-4.994C51.52,42.385,49.279,40.144,46.522,40.144z"/></g><g><path d="M46.522,49.338c-2.314,0-4.196-1.882-4.196-4.197c0-2.315,1.882-4.197,4.196-4.197s4.197,1.882,4.197,4.197   C50.72,47.456,48.837,49.338,46.522,49.338z M46.522,43.979c-0.64,0-1.161,0.521-1.161,1.162c0,0.64,0.521,1.162,1.161,1.162   c0.641,0,1.162-0.521,1.162-1.162C47.685,44.5,47.163,43.979,46.522,43.979z"/></g><g><path d="M37.353,29.271c-2.3,0-4.173-1.873-4.173-4.173s1.873-4.173,4.173-4.173c2.301,0,4.174,1.873,4.174,4.173   S39.653,29.271,37.353,29.271z M37.353,23.959c-0.628,0-1.138,0.51-1.138,1.138c0,0.628,0.51,1.138,1.138,1.138   c0.629,0,1.139-0.51,1.139-1.138C38.491,24.469,37.981,23.959,37.353,23.959z"/></g><g><path d="M85.702,46.658c-0.823,0-1.502-0.661-1.517-1.488C83.743,22.276,70.11,12.458,58.754,8.255   c-0.785-0.291-1.186-1.165-0.896-1.95c0.291-0.785,1.159-1.191,1.95-0.895C72.052,9.941,86.746,20.507,87.22,45.111   c0.015,0.838-0.648,1.529-1.487,1.547C85.724,46.658,85.712,46.658,85.702,46.658z"/></g><g><path d="M53.206,6.518c-0.113,0-0.231-0.012-0.35-0.042c-3.782-0.892-6.39-1.04-6.414-1.043c-0.839-0.044-1.479-0.759-1.435-1.595   c0.048-0.835,0.747-1.526,1.595-1.435c0.115,0.006,2.884,0.16,6.953,1.121c0.814,0.192,1.318,1.007,1.126,1.826   C54.519,6.047,53.896,6.518,53.206,6.518z"/></g><text x="0" y="115" fill="#000000" font-size="5px" font-weight="bold" font-family="'Helvetica Neue', Helvetica, Arial-Unicode, Arial, Sans-serif">Created by Iconic</text><text x="0" y="120" fill="#000000" font-size="5px" font-weight="bold" font-family="'Helvetica Neue', Helvetica, Arial-Unicode, Arial, Sans-serif">from the Noun Project</text></svg>