<svg xmlns="http://www.w3.org/2000/svg" xmlns:xlink="http://www.w3.org/1999/xlink" xml:space="preserve" style="shape-rendering:geometricPrecision;text-rendering:geometricPrecision;image-rendering:optimizeQuality;" viewBox="0 0 6.82666 8.533325000000001" x="0px" y="0px" fill-rule="evenodd" clip-rule="evenodd"><defs><style type="text/css">
   
    .fil1 {fill:none}
    .fil0 {fill:black;fill-rule:nonzero}
   
  </style></defs><g><path class="fil0" d="M5.82459 4.58666l-0.00718898 -0.0260315c-0.0251102,-0.0912087 -0.0522835,-0.195287 -0.0531181,-0.19563l-0.0133346 -0.00625197 -0.734327 -0.429319 -0.780657 0c-0.0676417,0.0581417 -0.131795,0.116909 -0.192689,0.172689 -0.190524,0.174524 -0.351913,0.322346 -0.523268,0.365122l0 -0.224484c0.108205,-0.0484094 0.233996,-0.163622 0.379937,-0.297307 0.0712402,-0.0652598 0.146854,-0.134524 0.229205,-0.203941l0.0683346 -0.0254173 0.847941 0 0.053752 0.0145866 0.759276 0.443906 -8.26772e-005 0.000141732c0.158445,0.0879843 0.171323,0.495406 0.249681,0.626287l-0.134728 -0.00101181 -2.45331 0 0 -0.213339 2.30458 0zm-2.51792 -0.124059c-0.155823,-0.0465039 -0.299724,-0.182567 -0.468299,-0.341984l0 -0.000417323c-0.051311,-0.0485236 -0.105217,-0.0995 -0.16463,-0.152335l-0.353402 0.351319 -0.0749134 0.0744724 -0.0750866 -0.0744724 -0.366126 -0.363161 -0.688835 0.402724 -0.0133346 0.00625197c-0.0074252,0.00304724 -0.0524488,0.122902 -0.0894803,0.221661l2.29411 0 0 0.213339 -2.45332 0 -0.187803 0 0.0965512 -0.161252c0.0105984,-0.0177008 0.0290433,-0.0668819 0.0499921,-0.12276 0.049437,-0.13185 0.109898,-0.293075 0.195886,-0.341232l-0.000102362 -0.000173228 0.759272 -0.443906 0.070437 -0.0411811 0.058315 0.0578465 0.349358 0.346531 0.348587 -0.346531 0.0691732 -0.0687677 0.0745787 0.0629331c0.0852047,0.0718976 0.168547,0.150705 0.246402,0.224331l0.000208661 -0.000220472c0.122362,0.115717 0.229311,0.216846 0.322465,0.267335l0 0.22965z"/><path class="fil0" d="M5.24747 3.31083c-7.87402e-005,-0.00196457 -0.0256575,-0.686244 -0.302287,-0.700291 -0.19715,-0.00996457 -0.419008,-0.0357756 -0.594823,-0.0666693 -0.0923228,-0.0162244 -0.175209,-0.0356063 -0.240634,-0.0570197 -0.0334606,0.0911614 -0.0644803,0.203803 -0.0940079,0.311043l-0.00393701 0.0143031 0 0.000417323c-0.0403071,0.146134 -0.0655394,0.569594 -0.0656102,0.570815l-0.210835 0.013748c-0.000425197,-0.00223228 -0.149059,-0.777217 -0.15413,-1.0102l-0.000417323 -0.00208268 0 -0.0210906 0.000417323 -0.0025c0.00335827,-0.128039 0.0403543,-0.267394 0.108028,-0.378335 0.0557717,-0.0914213 0.132661,-0.165256 0.229913,-0.202728 0.0330512,-0.0482087 0.076815,-0.0910591 0.128736,-0.127874 0.125815,-0.0892008 0.303886,-0.145748 0.491319,-0.156783 0.186028,-0.0109528 0.384374,0.0224567 0.553154,0.11278 0.104398,0.0558701 0.197276,0.133055 0.26913,0.234402 0.346563,0.488811 0.0962795,1.48643 0.0955709,1.48931l-0.209587 -0.021252zm-0.292287 -0.912795c0.184807,0.00938189 0.30224,0.14898 0.37674,0.315815 0.0136299,-0.263079 -0.00968504,-0.558634 -0.143768,-0.747752 -0.0520315,-0.0733898 -0.11963,-0.129465 -0.195799,-0.170228 -0.132055,-0.0706693 -0.29037,-0.096626 -0.44065,-0.0877795 -0.148882,0.00876378 -0.286807,0.051189 -0.380492,0.11761 -0.0396496,0.0281102 -0.0701575,0.0596378 -0.088252,0.0934488l-0.0220866 0.0412638 -0.0454134 0.0116535c-0.0587165,0.0150669 -0.107642,0.0612244 -0.144559,0.12174 -0.0478858,0.0785039 -0.0742795,0.177839 -0.0771181,0.27l0.00034252 0 0 0.0210906 -0.000354331 0c0.00161024,0.0631496 0.0152323,0.172858 0.0337047,0.296472 0.0391102,-0.14076 0.0811693,-0.28339 0.130441,-0.382205l0.0735 -0.147406 0.104417 0.127406c0.00687008,0.00838189 0.108425,0.0296142 0.251193,0.0547047 0.170264,0.0299173 0.382374,0.0547756 0.568154,0.0641654z"/><path class="fil0" d="M1.55174 3.26017c0.0110079,-0.0159213 0.0204803,-0.0323228 0.0287717,-0.0490315 0.00898425,-0.0181181 0.0161732,-0.0353425 0.0221102,-0.0518898l0.0735 -0.204823 0.1165 0.183992c0.0623819,0.0985236 0.139126,0.174504 0.229161,0.224957 0.0873031,0.0489252 0.188228,0.0743858 0.301843,0.073689l0.000417323 -0.000417323c0.0430787,0 -0.00186614,0.000448819 0.0120827,0.000311024l0.00477165 -3.93701e-005 0 -1.5748e-005c0.209791,-0.00527165 0.384591,-0.107835 0.507228,-0.283508 0.129862,-0.186024 0.203488,-0.453161 0.202744,-0.775854 -7.87402e-006,-0.00633858 -0.000106299,-0.0134606 -0.000279528,-0.0212992 -0.00458268,-0.20652 -0.0721457,-0.369161 -0.192469,-0.478681 -0.122437,-0.111445 -0.302461,-0.171685 -0.529638,-0.171311 -0.00811024,1.1811e-005 -0.0170945,0.000129921 -0.0269528,0.000346457 -0.12563,0.00279921 -0.235209,0.0235 -0.327823,0.0608504 -0.0889921,0.0358937 -0.162071,0.0875866 -0.218299,0.153862l-0.0437913 0.0516181 -0.065378 -0.0178701c-0.0438189,-0.0119724 -0.0808701,-0.014563 -0.114819,-0.00843701 -0.0339055,0.00611811 -0.0681063,0.0215866 -0.105634,0.0456339 -0.039689,0.0306929 -0.0708189,0.070378 -0.0945787,0.115016 -0.0291063,0.0546811 -0.0472598,0.117606 -0.056626,0.181614l-0.000417323 0.000834646c-0.0330512,0.212134 0.0100866,0.438898 0.0518228,0.658323 0.00290551,0.0152874 0.00568898,0.0298858 0.0139252,0.0741575l0.000417323 0.00124803c0.00268898,0.0157205 0.0055748,0.0293976 0.00854724,0.0434528l8.66142e-005 -1.9685e-005c0.00824409,0.0389685 0.0170039,0.0803386 0.0184449,0.12285l-0.00416929 0.0341693c-0.00113386,0.00375591 -0.000248031,0.000425197 -0.00215354,0.00624016 -0.00023622,0.00073622 -0.000330709,0.000700787 -0.000413386,0.00111417l-0.0025 0.00916535c-0.0170709,0.0583858 -0.0661614,0.109567 -0.121906,0.15137 0.0420669,0.0113858 0.0827087,0.0142441 0.120894,0.00801969 0.0710748,-0.0115906 0.138,-0.0566693 0.194161,-0.13922l0.000417323 -0.000417323zm0.365878 0.289039c-0.0730591,-0.0409409 -0.139209,-0.093748 -0.19815,-0.157559 -0.0899055,0.126937 -0.203161,0.19778 -0.328142,0.218157 -0.131925,0.0215157 -0.271913,-0.0151063 -0.406421,-0.102791l-0.00333465 -0.00208268c-0.0164055,-0.0115866 -0.0294094,-0.0227402 -0.0294449,-0.0227677l-0.117878 -0.0982323 0.132878 -0.0759331c1.5748e-005,-7.87402e-006 0.0139921,-0.0086063 0.0254252,-0.0151378l0.0025 -0.00166535c0.0293071,-0.0155709 0.0738031,-0.040126 0.10872,-0.0655394 0.0240315,-0.0174882 0.0443346,-0.033815 0.0492756,-0.0422874l0.000574803 -0.00234646c-0.00244488,-0.0201654 -0.00784252,-0.0456614 -0.0129882,-0.0699803l0 -0.000417323c-0.00402362,-0.0190276 -0.00794094,-0.0375157 -0.0103031,-0.0513465l0.000177165 -3.14961e-005c-0.00148031,-0.00787795 -0.00762598,-0.0401929 -0.013685,-0.0720433 -0.0449331,-0.236205 -0.0913504,-0.480295 -0.0527874,-0.729114l-0.000287402 -4.33071e-005c0.0125197,-0.0855669 0.0380551,-0.172059 0.0799567,-0.25078 0.0382913,-0.0719449 0.0901378,-0.136669 0.158031,-0.187646l0.00583465 -0.00416535c0.0616772,-0.0399606 0.121492,-0.0662953 0.186346,-0.0780039 0.0461575,-0.00832677 0.0931457,-0.0088937 0.14324,-0.00130315 0.0712008,-0.0700984 0.157236,-0.125811 0.257386,-0.166209 0.115669,-0.0466496 0.25035,-0.0724488 0.402823,-0.0758504 0.0096378,-0.000212598 0.0200276,-0.000330709 0.0311181,-0.000346457 0.282339,-0.000464567 0.511252,0.0791102 0.672969,0.226311 0.163839,0.14913 0.255693,0.364004 0.261642,0.63202 0.000169291,0.0076378 0.000267717,0.016126 0.000279528,0.0254646 0.00084252,0.367067 -0.0867008,0.676374 -0.241083,0.897524 -0.161854,0.23185 -0.394874,0.367272 -0.676394,0.374343l-0.00166535 0 -0.00643701 5.51181e-005c-0.0234843,0.000232283 0.0249803,0.000523622 -0.013752,0.000523622l0 -0.000417323c-0.15174,0.000862205 -0.287669,-0.0338071 -0.406425,-0.100358z"/><rect class="fil1" x="0.853331" y="0.853333" width="5.12" height="5.12"/><rect class="fil1" width="6.82666" height="6.82666"/></g><text x="0" y="21.82666" fill="#000000" font-size="5px" font-weight="bold" font-family="'Helvetica Neue', Helvetica, Arial-Unicode, Arial, Sans-serif">Created by Iconbunny</text><text x="0" y="26.82666" fill="#000000" font-size="5px" font-weight="bold" font-family="'Helvetica Neue', Helvetica, Arial-Unicode, Arial, Sans-serif">from the Noun Project</text></svg>