<svg xmlns="http://www.w3.org/2000/svg" data-name="Icon Set" viewBox="0 0 24 30" x="0px" y="0px"><title>Call</title><path d="M18.23,21.8a2.44,2.44,0,0,1-.45,0A19.53,19.53,0,0,1,2.24,6.22,2.52,2.52,0,0,1,3.75,3.45L6.56,2.29a.5.5,0,0,1,.64.24l2,4.1a.5.5,0,0,1,0,.51L7.41,9.51h0a1.52,1.52,0,0,0-.06,1.7,16.31,16.31,0,0,0,5.46,5.45,1.52,1.52,0,0,0,1.68-.05L17,14.84a.51.51,0,0,1,.51,0l4,2a.5.5,0,0,1,.24.64l-1.16,2.81A2.52,2.52,0,0,1,18.23,21.8ZM6.51,3.39l-2.37,1A1.51,1.51,0,0,0,3.22,6,18.53,18.53,0,0,0,18,20.78a1.51,1.51,0,0,0,1.67-.91l1-2.38L17.3,15.83l-2.23,1.59a2.52,2.52,0,0,1-2.78.09,17.34,17.34,0,0,1-5.8-5.79,2.52,2.52,0,0,1,.12-2.81L8.17,6.8ZM7,9.22H7Z"/><text x="0" y="39" fill="#000000" font-size="5px" font-weight="bold" font-family="'Helvetica Neue', Helvetica, Arial-Unicode, Arial, Sans-serif">Created by Nathan Gathright</text><text x="0" y="44" fill="#000000" font-size="5px" font-weight="bold" font-family="'Helvetica Neue', Helvetica, Arial-Unicode, Arial, Sans-serif">from the Noun Project</text></svg>