<svg xmlns="http://www.w3.org/2000/svg" xmlns:xlink="http://www.w3.org/1999/xlink" version="1.1" x="0px" y="0px" viewBox="0 0 100 125" enable-background="new 0 0 100 100" xml:space="preserve"><g display="none" enable-background="new    "><g display="inline"><g><polygon fill-rule="evenodd" clip-rule="evenodd" points="73,44 56,44 56,27 44,27 44,44 27,44 27,56 44,56 44,73 56,73 56,56      73,56    "/></g></g></g><g display="none" enable-background="new    "><g display="inline"><g><path fill-rule="evenodd" clip-rule="evenodd" d="M67,44H56V33c0-3.313-2.687-6-6-6s-6,2.687-6,6v11H33c-3.313,0-6,2.687-6,6     s2.687,6,6,6h11v11c0,3.313,2.687,6,6,6s6-2.687,6-6V56h11c3.313,0,6-2.687,6-6S70.313,44,67,44z"/></g></g></g><g display="none" enable-background="new    "><g display="inline"><g><path fill-rule="evenodd" clip-rule="evenodd" d="M71,48H52V29c0-1.104-0.896-2-2-2s-2,0.896-2,2v19H29c-1.104,0-2,0.896-2,2     s0.896,2,2,2h19v19c0,1.104,0.896,2,2,2s2-0.896,2-2V52h19c1.104,0,2-0.896,2-2S72.104,48,71,48z"/></g></g></g><g enable-background="new    "><g><g><polygon fill-rule="evenodd" clip-rule="evenodd" points="73,48 52,48 52,27 48,27 48,48 27,48 27,52 48,52 48,73 52,73 52,52      73,52    "/></g></g></g><g enable-background="new    "><g><g><circle fill="none" stroke="#000000" stroke-width="4" stroke-miterlimit="10" cx="50" cy="50" r="43.085"/></g></g></g><text x="0" y="115" fill="#000000" font-size="5px" font-weight="bold" font-family="'Helvetica Neue', Helvetica, Arial-Unicode, Arial, Sans-serif">Created by Shashank Sahay</text><text x="0" y="120" fill="#000000" font-size="5px" font-weight="bold" font-family="'Helvetica Neue', Helvetica, Arial-Unicode, Arial, Sans-serif">from the Noun Project</text></svg>